# xmcd
#
# Track frame offsets: 
#        150
#        14192
#        29510
#        46404
#        61036
#        76400
#        89968
#        106588
#        121535
#        138357
#        156988
#        173468
#        186398
#        203180
#        222219
#        237996
#        252747
#
# Disc length: 3589 seconds
#
# Revision: 3
# Processed by: cddbd v1.5.2PL0 Copyright (c) Steve Scherf et al.
# Submitted via: ExactAudioCopy v1.3
#
DISCID=ef0e0311
DTITLE=Luke Combs - What You See Is What You Get
DYEAR=2019
DGENRE=Country
TTITLE0=Beer Never Broke My Heart
TTITLE1=Refrigerator Door
TTITLE2=Even Though I'm Leaving
TTITLE3=Lovin' On You
TTITLE4=Moon Over Mexico
TTITLE5=Luke Combs Feat. Brooks and Dunn - 1, 2 Many
TTITLE6=Blue Collar Boys
TTITLE7=New Every Day
TTITLE8=Reasons
TTITLE9=Every Little Bit Helps
TTITLE10=Dear Today
TTITLE11=What You See Is What You Get
TTITLE12=Luke Combs Feat. Eric Church - Does To Me
TTITLE13=Angels Workin' Overtime
TTITLE14=All Over Again
TTITLE15=Nothing Like You
TTITLE16=Better Together
EXTD=
EXTT0=
EXTT1=
EXTT2=
EXTT3=
EXTT4=
EXTT5=
EXTT6=
EXTT7=
EXTT8=
EXTT9=
EXTT10=
EXTT11=
EXTT12=
EXTT13=
EXTT14=
EXTT15=
EXTT16=
PLAYORDER=
